<svg xmlns="http://www.w3.org/2000/svg" viewBox="0 0 176.02 176.02"><defs><style>.cls-1{fill:#fff;}</style></defs><title>Asset 2</title><g id="Layer_2" data-name="Layer 2"><g id="Layer_1-2" data-name="Layer 1"><path class="cls-1" d="M31.16,99.77H24.54a1.83,1.83,0,0,1-1.43-3l4.4-5.52a1.83,1.83,0,0,1,1.43-.69h7.58L78.17,19.22a1.83,1.83,0,0,1,1.58-.9h62A88,88,0,0,0,12.07,132.48Z"/><path class="cls-1" d="M151.87,27.49H105.28L120.85,32,106.53,90.59h37.08a1.83,1.83,0,0,1,1.81,2.07l-.73,5.52a1.83,1.83,0,0,1-1.82,1.59H83.14l19.77,5.66L85.7,176c.77,0,1.53.06,2.31.06A88,88,0,0,0,151.87,27.49Z"/></g></g></svg>